<?xml version="1.0" standalone="no"?>
<!DOCTYPE svg PUBLIC "-//W3C//DTD SVG 20010904//EN"
 "http://www.w3.org/TR/2001/REC-SVG-20010904/DTD/svg10.dtd">
<svg version="1.0" xmlns="http://www.w3.org/2000/svg"
 width="700.000000pt" height="700.000000pt" viewBox="0 0 700.000000 700.000000"
 preserveAspectRatio="xMidYMid meet">
<metadata>
Created by potrace 1.14, written by Peter Selinger 2001-2017
</metadata>
<g transform="translate(0.000000,700.000000) scale(0.100000,-0.100000)"
fill="#000000" stroke="none">
<path d="M3340 5515 c-285 -61 -502 -232 -629 -494 -22 -46 -48 -119 -58 -162
l-18 -79 -157 0 c-155 0 -158 0 -163 -22 -2 -13 -21 -111 -40 -218 -20 -107
-79 -400 -131 -650 -267 -1277 -320 -1580 -331 -1901 l-6 -177 42 -30 c316
-229 1696 -323 2660 -181 248 36 449 88 574 149 111 55 102 32 102 263 -1 350
-39 582 -319 1962 -62 307 -146 758 -146 787 0 5 -74 8 -165 8 l-165 0 -6 28
c-36 159 -76 256 -149 358 -119 166 -291 289 -485 344 -97 28 -314 36 -410 15z
m324 -180 c173 -37 342 -155 440 -307 43 -68 83 -163 92 -219 l7 -42 -687 6
c-378 3 -690 8 -693 10 -8 8 18 89 51 162 138 297 466 459 790 390z m-768
-1044 c98 -44 97 -174 -2 -221 -40 -20 -48 -21 -86 -8 -114 36 -118 204 -5
237 45 13 47 13 93 -8z m1319 9 c25 0 74 -51 84 -86 26 -93 -60 -179 -152
-153 -91 25 -121 144 -53 208 25 24 73 42 94 35 8 -2 20 -4 27 -4z"/>
</g>
</svg>
